<?xml version="1.0" encoding="utf-8" ?><svg xmlns="http://www.w3.org/2000/svg" xmlns:xlink="http://www.w3.org/1999/xlink" width="579" height="431" viewBox="0 0 579 431"><path d="M163.825 94.1167C165.923 90.808 173.544 83.0157 176.549 80.3028C214.474 45.6597 264.671 27.5953 315.983 30.1242C367.062 32.8067 414.917 55.9049 448.785 94.2229C481.649 131.114 498.664 179.456 496.15 228.791C493.742 279.59 470.944 327.271 432.915 361.05C403.078 388.078 365.33 404.789 325.257 408.709C320.644 409.127 315.783 409.025 311.128 409.159C252.862 410.833 199.732 385.793 161.365 342.314C132.215 308.831 115.884 266.102 115.274 221.718C115.013 210.44 115.946 204.416 116.623 193.497C125.112 197.861 133.036 202.5 141.344 207.02C151.551 212.573 161.499 217.709 171.475 223.832C163.825 224.92 154.286 226.856 146.856 227.171C152.964 229.868 158.211 232.091 164.615 234.255C174.781 237.69 184.775 241.83 194.878 245.497C200.591 247.544 206.265 249.694 211.899 251.948C214.298 252.896 216.397 253.55 218.758 254.669C213.687 256.915 206.634 258.75 201.257 260.789C205.068 261.582 208.828 262.027 212.55 262.767C230.289 266.182 247.943 270.023 265.496 274.287C261.157 277.035 257.778 278.898 253.426 281.976C256.457 282.042 259.373 282.741 262.313 282.822C279.291 283.29 296.17 286.06 313.112 286.408C315.99 286.467 321.977 283.805 325.718 283.259C327.776 281.404 331.153 277.065 333.035 274.751L346.095 258.603L375.227 222.982C377.757 219.891 380.498 216.928 383.077 213.878C383.93 212.869 384.33 212.082 384.174 210.768L383.747 210.437C380.264 210.791 362.999 229.468 359.312 232.47C355.558 235.527 354.058 240.463 348.068 238.565C345.12 237.632 341.913 237.26 339.093 236.467C339.539 233.388 381.108 210.235 382.091 207.86C382.305 207.343 382.127 207.13 381.934 206.646C379.319 205.555 372.359 210.311 369.763 211.723L345.724 224.668C341.453 226.936 337.435 229.62 332.844 230.98C330.282 230.398 320.824 228.111 319.33 226.312C319.4 226.134 319.469 225.955 319.539 225.777C332.511 220.965 349.33 214.799 362.011 210.303C367.826 208.242 379.552 204.934 380.124 202.789C379.371 200.398 376.925 200.983 374.897 201.485C368.264 203.128 361.99 205.674 355.431 207.613L333.597 214.197C327.949 215.876 321.046 217.768 315.556 219.849C312.014 218.124 301.627 213.768 298.829 211.786L298.809 211.304C301.097 211.148 302.958 210.588 305.128 210.283C310.732 209.496 316.25 208.162 321.782 207.212L344.754 203.364C348.999 202.611 353.348 201.373 357.682 201.119C359.532 201.01 375.794 198.302 376.361 197.802C375.547 196.294 374.822 194.127 372.818 194.135C367.943 194.155 363.069 195.277 358.235 195.641C346.569 196.388 334.984 198.375 323.39 199.726C314.862 200.719 304.974 202.894 296.507 202.948C295.353 202.116 294.159 201.348 292.951 200.597C287.579 197.255 282.561 193.378 277.172 190.065C280.045 189.954 282.99 190.086 285.872 190.053C314.356 189.726 343.127 190.595 371.583 189.921C370.04 188.406 368.252 186.25 366.807 184.584C358.216 183.814 349.659 184.142 341.097 183.675C334.933 183.046 328.487 183.279 322.372 182.581C308.309 180.974 293.456 181.901 279.468 180.668C275.854 177.212 261.401 165.426 259.495 162.14C260.824 162.506 262.539 162.856 263.918 163.021C272.23 164.017 280.387 165.577 288.658 166.891L340.435 175.57C345.122 176.338 349.601 176.99 354.286 177.903C357.563 178.543 360.241 178.502 363.67 179.551C361.285 177.586 358.796 174.592 356.335 172.325C352.34 171.985 347.958 170.376 344.009 169.541C320.439 164.558 296.886 159.564 273.211 155.059C270.289 154.503 267.313 154.151 264.436 153.363C263.283 153.048 262.282 152.293 261.431 151.448C257.623 146.847 243.602 132.206 241.287 127.808C247.485 130.459 253.991 131.881 260.347 134.123C267.156 136.524 274.202 138.398 281.034 140.705L324.729 155.248C327.785 156.237 335.724 159.403 338.313 159.866C345.695 161.432 353.974 160.245 361.269 161.135C385.601 164.1 412.04 163.569 434.861 173.363C438.127 174.765 439.183 178.045 439.993 181.068C444.401 182.69 449.832 185.645 452.95 189.204C458.014 194.986 457.777 199.969 457.442 206.971C451.297 198.633 445.858 200.732 436.368 200.018C432.308 199.712 424.975 204.472 421.384 206.684C407.851 215.019 397.569 228.312 394.493 244.063C393.236 250.997 394.292 255.943 391.608 263.696C387.658 275.107 384.309 279.673 376.392 288.328C375.683 288.991 375.209 289.28 375.024 290.194L375.349 290.523C376.29 290.348 376.558 289.974 377.313 289.315C378.541 288.052 380.744 286.723 382.221 285.458C390.986 277.951 398.842 267.699 402.048 256.435C405.721 243.526 406.107 231.32 415.507 220.594C422.499 212.616 431.071 207.442 441.869 206.789C445.316 206.743 450.16 205.794 452.905 208.38C454.327 209.72 454.684 214.562 455.749 215.5C457.004 215.381 457.668 214.527 458.548 213.554C464.022 207.501 463.313 201.527 463.032 194.108C467.397 194.972 475.664 195.38 480.064 195.139C480.067 194.822 480.062 194.505 480.05 194.188C479.819 187.846 476.923 176.783 475.124 170.594C466.292 140.217 448.991 112.194 425.638 90.7019C398.461 65.5866 364.107 49.5972 327.387 44.9728C296.003 40.8962 261.519 46.4544 232.779 59.938C216.93 67.3742 197.48 79.685 185.612 92.6553C187.123 93.2499 193.326 96.854 195.188 97.9634C202.486 102.31 211.095 106.549 218.186 110.96C212.303 109.816 206.436 107.522 200.639 105.716L163.825 94.1167ZM428.265 183.438C428.467 182.277 428.605 182.021 428.214 180.968C426.116 179.905 424.584 184.402 421.867 184.297C421.218 183.68 420.273 179.805 419.399 178.186C414.596 176.213 405.619 174.504 400.402 174.425C401.443 175.316 406.246 177.562 407.865 178.437C408.463 180.622 409.063 183.059 410.676 184.707C416.209 190.358 423.601 188.967 428.265 183.438Z"/><path d="M54.3578 69.4027C58.8303 70.4386 67.6291 73.5073 72.3762 74.9856C86.9961 79.5623 101.593 84.2129 116.166 88.9371C152.062 99.8911 187.888 111.075 223.641 122.488C225.303 123.033 229.087 124.123 230.259 125.241C237.393 132.038 243.626 139.826 250.005 147.321C250.947 148.428 252.024 149.414 252.918 150.505C247.968 151.391 194.268 139.992 186.219 138.519L137.54 129.444C129.395 127.927 118.667 126.407 110.805 124.582C96.0153 109.385 80.0564 94.9245 65.0971 79.9113C62.5208 77.3257 55.9748 71.7962 54.3578 69.4027Z"/><path d="M86.4057 134.05C123.515 140.371 160.685 146.324 197.912 151.908L236.183 158.169C240.443 158.867 244.026 159.98 248.46 160.427C254.163 164.967 263.978 173.81 269.513 179.23C269.568 179.466 269.623 179.703 269.679 179.94C256.598 180.934 241.146 178.964 227.815 178.531L169.065 176.875C162.063 176.619 154.951 175.728 147.856 175.9C146.753 175.927 142.276 175.4 141.561 174.921C134.416 170.145 127.612 164.776 120.744 159.605C110.001 151.598 99.0074 144.059 88.3147 135.991C87.4698 135.353 86.7566 135.033 86.4057 134.05Z"/><path d="M127.13 190.011L268.581 190.003C272.798 193.635 284.519 199.814 288.143 203.786C284.029 204.726 280.445 205.659 276.221 205.969C270.224 206.34 263.911 207.727 257.907 208.367C253.76 208.941 249.489 209 245.35 209.589C236.214 210.89 227.152 212.252 217.954 213.114C214.633 213.425 211.226 214.263 207.9 214.611C203.386 215.083 198.873 215.479 194.376 216.092C190.345 216.601 181.738 218.664 177.88 217.902C176.023 217.535 170.147 213.805 168.087 212.761C158.833 208.072 150.003 202.593 140.789 197.844C136.975 195.87 131.412 192.769 127.432 190.634C127.332 190.427 127.231 190.219 127.13 190.011Z"/><path d="M287.413 212.919C288.442 212.65 290.22 212.803 291.101 213.321C293.301 214.613 306.957 220.027 307.574 221.636C298.355 225.041 290.09 227.472 280.752 230.361L241.594 242.138C236.852 243.553 225.54 247.56 221.02 247.964C218.738 248.168 205.916 242.946 202.845 241.778C196.731 239.733 190.865 237.388 184.697 235.376C181.179 234.228 178.201 232.844 174.442 231.765C179.211 231.478 182.629 230.414 187.119 229.757C195.71 228.807 204 226.875 212.495 225.468C219.343 224.334 226.59 223.087 233.445 222.022C238.638 221.216 243.538 220.678 248.696 219.463C251.514 218.799 254.798 218.77 257.661 218.166C263.154 217.034 268.375 216.095 273.957 215.453C278.463 214.935 282.799 213.279 287.413 212.919Z"/><path d="M310.665 229.246C313.833 228.723 324.598 232.519 328.209 233.773C328.066 233.885 327.92 233.995 327.772 234.102C325.049 236.07 266.997 266.931 264.486 267.286C261.627 267.69 250.543 264.967 246.796 264.336C239.757 263.08 233.324 260.7 225.742 260.465C234.058 256.458 245.988 252.891 254.937 249.552L285.885 238.344C293.807 235.41 302.781 231.755 310.665 229.246Z"/><path d="M332.637 239.697C337.01 240.198 344.34 241.507 348.721 242.396C342.589 248.586 313.985 278.218 308.76 280.739C302.484 280.138 296.071 280.058 289.758 279.746C287.529 279.66 274.835 278.749 273.264 278.31L273.146 277.838C274.123 275.652 303.381 258.147 307.523 255.503L324.271 244.638C326.439 243.259 330.391 240.627 332.637 239.697Z"/><path d="M120.885 170.814C122.85 171.713 132.825 178.775 133.609 180.44C133.025 180.978 133.383 180.776 132.38 180.814C127.942 180.975 123.069 180.868 118.599 180.857C119.081 177.817 119.672 173.61 120.885 170.814Z"/><path d="M376.392 288.328L377.313 289.315C376.558 289.974 376.29 290.348 375.349 290.523L375.024 290.194C375.209 289.28 375.683 288.991 376.392 288.328Z"/></svg>
